<svg width="279" height="276" viewBox="0 0 279 276" fill="none" xmlns="http://www.w3.org/2000/svg">
<path d="M41.8105 27.1627L75.1539 29.3855L149.003 24.1988H189.509L277.19 20" stroke="#3FC66D" stroke-width="2" stroke-linecap="round"/>
<path d="M42.8414 23.0375L42.8911 22.2721L45.9699 19.3118C46.3312 18.9651 46.6298 18.6628 46.8657 18.4048C47.1019 18.144 47.2802 17.8965 47.4007 17.6623C47.5243 17.4255 47.5947 17.1739 47.612 16.9074C47.6319 16.6012 47.5754 16.3314 47.4425 16.0978C47.3124 15.8645 47.1252 15.6787 46.8808 15.5404C46.6364 15.4021 46.3568 15.3228 46.0422 15.3024C45.7076 15.2807 45.4111 15.3312 45.1526 15.4539C44.8972 15.574 44.6934 15.7529 44.5413 15.9907C44.3921 16.2287 44.3067 16.5136 44.2852 16.8453L43.2816 16.7802C43.3147 16.2699 43.4614 15.8296 43.7217 15.4593C43.9821 15.089 44.3219 14.8093 44.7413 14.6201C45.1635 14.4312 45.6283 14.3531 46.1358 14.3861C46.6461 14.4192 47.0913 14.5562 47.4713 14.7973C47.8514 15.0383 48.1416 15.3489 48.3418 15.7292C48.542 16.1094 48.6276 16.5235 48.5986 16.9714C48.5778 17.2918 48.4993 17.6012 48.3632 17.8999C48.2302 18.1959 48.0097 18.5218 47.7019 18.8776C47.3972 19.2307 46.978 19.659 46.4442 20.1625L44.3524 22.1277L44.348 22.1958L48.3963 22.4585L48.3356 23.394L42.8414 23.0375ZM50.0918 23.5079L50.1415 22.7425L53.2203 19.7822C53.5816 19.4356 53.8802 19.1333 54.1161 18.8753C54.3523 18.6144 54.5306 18.3669 54.6511 18.1328C54.7747 17.896 54.8451 17.6443 54.8624 17.3778C54.8822 17.0717 54.8257 16.8018 54.6928 16.5683C54.5628 16.3349 54.3756 16.1491 54.1312 16.0109C53.8868 15.8726 53.6072 15.7932 53.2925 15.7728C52.958 15.7511 52.6615 15.8016 52.403 15.9243C52.1476 16.0444 51.9438 16.2234 51.7917 16.4612C51.6425 16.6992 51.5571 16.984 51.5356 17.3157L50.532 17.2506C50.5651 16.7403 50.7118 16.3 50.9721 15.9297C51.2324 15.5594 51.5723 15.2797 51.9917 15.0906C52.4139 14.9016 52.8787 14.8236 53.3862 14.8565C53.8965 14.8896 54.3416 15.0267 54.7217 15.2677C55.1018 15.5087 55.392 15.8194 55.5922 16.1996C55.7924 16.5798 55.878 16.9939 55.8489 17.4418C55.8282 17.7622 55.7497 18.0717 55.6136 18.3703C55.4805 18.6663 55.2601 18.9922 54.9523 19.348C54.6476 19.7012 54.2283 20.1295 53.6946 20.6329L51.6028 22.5982L51.5983 22.6662L55.6466 22.9289L55.5859 23.8644L50.0918 23.5079ZM60.969 15.4681L60.4039 24.177L59.3493 24.1086L59.8427 16.5053L59.7916 16.502L57.5738 17.7758L57.6434 16.7042L59.9144 15.3996L60.969 15.4681ZM65.7415 24.6429C65.1008 24.6014 64.5664 24.3916 64.1383 24.0137C63.7103 23.6329 63.3989 23.1016 63.204 22.42C63.0093 21.7355 62.9426 20.9198 63.004 19.9729C63.0651 19.0317 63.2363 18.2357 63.5177 17.585C63.8021 16.9316 64.181 16.4437 64.6546 16.1214C65.1312 15.7965 65.687 15.6546 66.322 15.6958C66.9571 15.737 67.4885 15.9494 67.9162 16.3331C68.347 16.714 68.6598 17.2468 68.8545 17.9313C69.0522 18.6131 69.1206 19.4246 69.0595 20.3658C68.9981 21.3127 68.8266 22.1129 68.545 22.7665C68.2637 23.4173 67.8862 23.9038 67.4126 24.2261C66.9392 24.5456 66.3822 24.6845 65.7415 24.6429ZM65.8022 23.7074C66.4372 23.7486 66.9504 23.4744 67.3417 22.8849C67.7329 22.2953 67.9653 21.4336 68.0389 20.2996C68.0878 19.5455 68.0487 18.8982 67.9215 18.3575C67.7972 17.8171 67.5937 17.3982 67.3113 17.1009C67.0316 16.8038 66.682 16.6416 66.2624 16.6144C65.6331 16.5735 65.1211 16.852 64.7264 17.4499C64.332 18.0449 64.098 18.908 64.0246 20.0391C63.9757 20.7932 64.0135 21.4391 64.1381 21.9767C64.2626 22.5143 64.4648 22.9302 64.7446 23.2246C65.0273 23.519 65.3798 23.68 65.8022 23.7074Z" fill="#3FC66D"/>
<path d="M8 96.1627L41.3434 98.3855L115.193 93.1988H155.699L243.38 89" stroke="#F079E4" stroke-width="2" stroke-linecap="round"/>
<path d="M9.03089 92.0375L9.08056 91.2721L12.1594 88.3118C12.5206 87.9651 12.8193 87.6628 13.0552 87.4048C13.2913 87.144 13.4697 86.8965 13.5902 86.6623C13.7137 86.4255 13.7842 86.1739 13.8014 85.9074C13.8213 85.6012 13.7648 85.3314 13.6319 85.0978C13.5019 84.8645 13.3146 84.6787 13.0702 84.5404C12.8258 84.4021 12.5463 84.3228 12.2316 84.3024C11.8971 84.2807 11.6006 84.3312 11.3421 84.4539C11.0866 84.574 10.8829 84.7529 10.7308 84.9907C10.5815 85.2287 10.4961 85.5136 10.4746 85.8453L9.47106 85.7802C9.50417 85.2699 9.65088 84.8296 9.9112 84.4593C10.1715 84.089 10.5114 83.8093 10.9307 83.6201C11.3529 83.4312 11.8178 83.3531 12.3252 83.3861C12.8355 83.4192 13.2807 83.5562 13.6608 83.7973C14.0409 84.0383 14.331 84.3489 14.5313 84.7292C14.7315 85.1094 14.8171 85.5235 14.788 85.9714C14.7672 86.2918 14.6888 86.6012 14.5527 86.8999C14.4196 87.1959 14.1992 87.5218 13.8914 87.8776C13.5866 88.2307 13.1674 88.659 12.6337 89.1625L10.5418 91.1277L10.5374 91.1958L14.5857 91.4585L14.525 92.394L9.03089 92.0375ZM16.2813 92.5079L16.3309 91.7425L19.4097 88.7822C19.771 88.4356 20.0696 88.1333 20.3056 87.8753C20.5417 87.6144 20.72 87.3669 20.8406 87.1328C20.9641 86.896 21.0345 86.6443 21.0518 86.3778C21.0717 86.0717 21.0152 85.8018 20.8823 85.5683C20.7522 85.3349 20.565 85.1491 20.3206 85.0109C20.0762 84.8726 19.7967 84.7932 19.482 84.7728C19.1475 84.7511 18.851 84.8016 18.5925 84.9243C18.337 85.0444 18.1332 85.2234 17.9812 85.4612C17.8319 85.6992 17.7465 85.984 17.725 86.3157L16.7214 86.2506C16.7545 85.7403 16.9013 85.3 17.1616 84.9297C17.4219 84.5594 17.7617 84.2797 18.1811 84.0906C18.6033 83.9016 19.0682 83.8236 19.5756 83.8565C20.0859 83.8896 20.5311 84.0267 20.9112 84.2677C21.2912 84.5087 21.5814 84.8194 21.7816 85.1996C21.9819 85.5798 22.0675 85.9939 22.0384 86.4418C22.0176 86.7622 21.9392 87.0717 21.8031 87.3703C21.67 87.6663 21.4496 87.9922 21.1418 88.348C20.837 88.7012 20.4178 89.1295 19.8841 89.6329L17.7922 91.5982L17.7878 91.6662L21.8361 91.9289L21.7754 92.8644L16.2813 92.5079ZM23.5316 92.9784L23.5813 92.2129L26.6601 89.2527C27.0214 88.906 27.32 88.6037 27.556 88.3457C27.7921 88.0849 27.9704 87.8374 28.091 87.6032C28.2145 87.3664 28.2849 87.1147 28.3022 86.8483C28.3221 86.5421 28.2656 86.2722 28.1327 86.0387C28.0026 85.8054 27.8154 85.6196 27.571 85.4813C27.3266 85.343 27.0471 85.2637 26.7324 85.2432C26.3979 85.2215 26.1014 85.2721 25.8429 85.3948C25.5874 85.5149 25.3836 85.6938 25.2315 85.9316C25.0823 86.1696 24.9969 86.4544 24.9754 86.7861L23.9718 86.721C24.0049 86.2107 24.1516 85.7704 24.412 85.4002C24.6723 85.0299 25.0121 84.7501 25.4315 84.561C25.8537 84.372 26.3185 84.294 26.826 84.3269C27.3363 84.36 27.7815 84.4971 28.1616 84.7381C28.5416 84.9792 28.8318 85.2898 29.032 85.67C29.2322 86.0503 29.3178 86.4644 29.2888 86.9123C29.268 87.2326 29.1895 87.5421 29.0534 87.8407C28.9204 88.1367 28.6999 88.4626 28.3922 88.8184C28.0874 89.1716 27.6682 89.5999 27.1345 90.1033L25.0426 92.0686L25.0382 92.1367L29.0865 92.3993L29.0258 93.3349L23.5316 92.9784ZM33.6149 93.7522C32.9742 93.7106 32.4398 93.5009 32.0117 93.1229C31.5837 92.7421 31.2723 92.2109 31.0774 91.5292C30.8827 90.8447 30.816 90.0291 30.8775 89.0822C30.9385 88.141 31.1097 87.345 31.3911 86.6942C31.6755 86.0408 32.0545 85.553 32.528 85.2307C33.0046 84.9058 33.5604 84.7639 34.1954 84.8051C34.8305 84.8463 35.3619 85.0587 35.7896 85.4423C36.2204 85.8233 36.5332 86.356 36.7279 87.0405C36.9256 87.7224 36.994 88.5339 36.9329 89.4751C36.8715 90.422 36.7 91.2222 36.4184 91.8758C36.1371 92.5266 35.7596 93.0131 35.286 93.3354C34.8127 93.6548 34.2556 93.7938 33.6149 93.7522ZM33.6756 92.8167C34.3107 92.8579 34.8238 92.5837 35.2151 91.9941C35.6063 91.4046 35.8387 90.5429 35.9123 89.4089C35.9613 88.6548 35.9221 88.0074 35.7949 87.4668C35.6706 86.9264 35.4671 86.5075 35.1847 86.2102C34.905 85.913 34.5554 85.7508 34.1358 85.7236C33.5065 85.6828 32.9945 85.9613 32.5998 86.5592C32.2054 87.1542 31.9714 88.0173 31.898 89.1484C31.8491 89.9025 31.8869 90.5484 32.0115 91.086C32.136 91.6236 32.3382 92.0395 32.618 92.3338C32.9007 92.6283 33.2532 92.7892 33.6756 92.8167Z" fill="#F079E4"/>
<path d="M1 201.163L34.3434 203.386L108.193 198.199H148.699L236.38 194" stroke="#4FCCE8" stroke-width="2" stroke-linecap="round"/>
<path d="M4.96584 197.348C4.40452 197.311 3.91041 197.182 3.4835 196.961C3.05942 196.74 2.72953 196.449 2.4938 196.09C2.2611 195.727 2.14821 195.317 2.15515 194.859L3.22676 194.929C3.23123 195.211 3.31189 195.459 3.46874 195.675C3.62578 195.887 3.83821 196.057 4.10602 196.186C4.37384 196.314 4.67501 196.389 5.00953 196.411C5.38375 196.435 5.71967 196.391 6.01729 196.28C6.31492 196.168 6.55349 196.001 6.733 195.78C6.91251 195.558 7.01219 195.294 7.03206 194.988C7.05285 194.667 6.99177 194.38 6.84883 194.126C6.70608 193.869 6.48612 193.661 6.18896 193.502C5.8918 193.344 5.52209 193.25 5.07984 193.221L4.38244 193.176L4.44314 192.24L5.14054 192.286C5.4864 192.308 5.79379 192.265 6.0627 192.158C6.33444 192.05 6.55138 191.888 6.71351 191.67C6.87848 191.453 6.9709 191.192 6.99076 190.886C7.00989 190.591 6.96134 190.33 6.84509 190.103C6.72885 189.876 6.55561 189.694 6.32539 189.557C6.098 189.42 5.82413 189.341 5.50378 189.32C5.20327 189.301 4.91619 189.337 4.64253 189.431C4.37189 189.521 4.14623 189.665 3.96554 189.861C3.78503 190.054 3.67831 190.295 3.64537 190.583L2.62479 190.517C2.67142 190.062 2.83485 189.671 3.11508 189.344C3.39551 189.015 3.75034 188.768 4.17958 188.602C4.61166 188.437 5.0786 188.37 5.58038 188.403C6.11902 188.438 6.57404 188.577 6.94543 188.82C7.317 189.06 7.59477 189.365 7.77873 189.732C7.96268 190.1 8.04133 190.49 8.01466 190.901C7.98283 191.391 7.82671 191.801 7.54629 192.13C7.2687 192.459 6.90588 192.676 6.45782 192.781L6.4534 192.849C6.9975 192.976 7.41182 193.237 7.69636 193.634C7.98109 194.029 8.10552 194.502 8.06965 195.055C8.03893 195.528 7.88235 195.945 7.59991 196.306C7.32048 196.663 6.95265 196.936 6.49642 197.122C6.04019 197.309 5.53 197.384 4.96584 197.348ZM9.65548 197.532L9.70515 196.767L12.784 193.807C13.1452 193.46 13.4438 193.158 13.6798 192.9C13.9159 192.639 14.0943 192.391 14.2148 192.157C14.3383 191.92 14.4088 191.669 14.426 191.402C14.4459 191.096 14.3894 190.826 14.2565 190.593C14.1265 190.359 13.9392 190.173 13.6948 190.035C13.4504 189.897 13.1709 189.818 12.8562 189.797C12.5217 189.775 12.2252 189.826 11.9667 189.949C11.7112 190.069 11.5075 190.248 11.3554 190.485C11.2061 190.723 11.1207 191.008 11.0992 191.34L10.0956 191.275C10.1288 190.765 10.2755 190.324 10.5358 189.954C10.7961 189.584 11.136 189.304 11.5553 189.115C11.9775 188.926 12.4424 188.848 12.9498 188.881C13.4601 188.914 13.9053 189.051 14.2854 189.292C14.6655 189.533 14.9556 189.844 15.1558 190.224C15.3561 190.604 15.4417 191.018 15.4126 191.466C15.3918 191.786 15.3134 192.096 15.1773 192.395C15.0442 192.691 14.8238 193.016 14.516 193.372C14.2112 193.725 13.792 194.154 13.2583 194.657L11.1664 196.622L11.162 196.691L15.2103 196.953L15.1496 197.889L9.65548 197.532ZM20.5327 189.492L19.9676 198.201L18.913 198.133L19.4063 190.53L19.3553 190.526L17.1375 191.8L17.207 190.728L19.4781 189.424L20.5327 189.492ZM25.3052 198.667C24.6645 198.626 24.1301 198.416 23.7019 198.038C23.274 197.657 22.9626 197.126 22.7676 196.444C22.5729 195.76 22.5063 194.944 22.5677 193.997C22.6288 193.056 22.8 192.26 23.0814 191.609C23.3657 190.956 23.7447 190.468 24.2183 190.146C24.6949 189.821 25.2507 189.679 25.8857 189.72C26.5207 189.761 27.0521 189.974 27.4799 190.357C27.9107 190.738 28.2234 191.271 28.4181 191.956C28.6159 192.637 28.6842 193.449 28.6232 194.39C28.5617 195.337 28.3902 196.137 28.1087 196.791C27.8273 197.442 27.4499 197.928 26.9763 198.25C26.5029 198.57 25.9459 198.709 25.3052 198.667ZM25.3659 197.732C26.0009 197.773 26.5141 197.499 26.9053 196.909C27.2966 196.32 27.529 195.458 27.6026 194.324C27.6515 193.57 27.6124 192.922 27.4852 192.382C27.3608 191.841 27.1574 191.423 26.8749 191.125C26.5953 190.828 26.2457 190.666 25.8261 190.639C25.1967 190.598 24.6847 190.876 24.2901 191.474C23.8956 192.069 23.6617 192.932 23.5883 194.063C23.5394 194.818 23.5772 195.463 23.7017 196.001C23.8263 196.539 24.0284 196.955 24.3083 197.249C24.5909 197.543 24.9435 197.704 25.3659 197.732Z" fill="#4FCCE8"/>
<path d="M79.1627 274.38L81.3855 241.037L76.1988 167.187L76.1988 126.681L72 39.0004" stroke="#7883E8" stroke-width="2" stroke-linecap="round"/>
<path d="M75.3475 270.415C75.3111 270.976 75.1822 271.47 74.9609 271.897C74.7398 272.321 74.4494 272.651 74.0896 272.887C73.7272 273.119 73.3171 273.232 72.8592 273.225L72.9287 272.154C73.2108 272.149 73.4595 272.068 73.6746 271.912C73.8869 271.755 74.0573 271.542 74.1857 271.274C74.3141 271.007 74.3892 270.705 74.4109 270.371C74.4352 269.997 74.3915 269.661 74.2798 269.363C74.1682 269.065 74.0015 268.827 73.7797 268.647C73.5579 268.468 73.2939 268.368 72.9877 268.348C72.6674 268.328 72.3801 268.389 72.126 268.532C71.8691 268.674 71.6612 268.894 71.5024 269.191C71.3437 269.489 71.2499 269.858 71.2212 270.301L71.176 270.998L70.2405 270.937L70.2857 270.24C70.3081 269.894 70.2655 269.587 70.1576 269.318C70.05 269.046 69.8876 268.829 69.6703 268.667C69.4533 268.502 69.1917 268.409 68.8855 268.39C68.5907 268.37 68.3299 268.419 68.1031 268.535C67.8764 268.652 67.6943 268.825 67.557 269.055C67.4198 269.282 67.3408 269.556 67.32 269.877C67.3005 270.177 67.3374 270.464 67.4307 270.738C67.5213 271.008 67.6647 271.234 67.8608 271.415C68.054 271.595 68.2948 271.702 68.583 271.735L68.5168 272.756C68.0615 272.709 67.6707 272.546 67.3444 272.265C67.0153 271.985 66.7679 271.63 66.6021 271.201C66.4366 270.769 66.3701 270.302 66.4026 269.8C66.4376 269.261 66.5767 268.806 66.82 268.435C67.0605 268.063 67.3646 267.786 67.7324 267.602C68.1002 267.418 68.4896 267.339 68.9007 267.366C69.3912 267.398 69.8009 267.554 70.1301 267.834C70.4594 268.112 70.6764 268.474 70.7811 268.923L70.8492 268.927C70.9756 268.383 71.2373 267.969 71.6344 267.684C72.0287 267.399 72.5022 267.275 73.055 267.311C73.5285 267.341 73.9453 267.498 74.3056 267.78C74.6633 268.06 74.9355 268.428 75.1223 268.884C75.309 269.34 75.3841 269.85 75.3475 270.415ZM75.5322 265.725L74.7668 265.675L71.8065 262.596C71.4599 262.235 71.1575 261.937 70.8995 261.701C70.6387 261.464 70.3912 261.286 70.1571 261.166C69.9202 261.042 69.6686 260.972 69.4021 260.954C69.0959 260.934 68.8261 260.991 68.5926 261.124C68.3592 261.254 68.1734 261.441 68.0351 261.686C67.8969 261.93 67.8175 262.209 67.7971 262.524C67.7754 262.859 67.8259 263.155 67.9486 263.414C68.0687 263.669 68.2476 263.873 68.4855 264.025C68.7235 264.174 69.0083 264.26 69.34 264.281L69.2749 265.285C68.7646 265.252 68.3243 265.105 67.954 264.845C67.5837 264.584 67.304 264.244 67.1148 263.825C66.9259 263.403 66.8479 262.938 66.8808 262.431C66.9139 261.92 67.051 261.475 67.292 261.095C67.533 260.715 67.8436 260.425 68.2239 260.225C68.6041 260.024 69.0182 259.939 69.4661 259.968C69.7865 259.989 70.096 260.067 70.3946 260.203C70.6906 260.336 71.0165 260.557 71.3723 260.864C71.7255 261.169 72.1538 261.588 72.6572 262.122L74.6225 264.214L74.6905 264.218L74.9532 260.17L75.8887 260.231L75.5322 265.725ZM76.0027 258.475L75.2372 258.425L72.2769 255.346C71.9303 254.985 71.628 254.686 71.37 254.45C71.1092 254.214 70.8617 254.036 70.6275 253.915C70.3907 253.792 70.139 253.721 69.8725 253.704C69.5664 253.684 69.2965 253.741 69.063 253.873C68.8296 254.004 68.6438 254.191 68.5056 254.435C68.3673 254.68 68.2879 254.959 68.2675 255.274C68.2458 255.608 68.2963 255.905 68.4191 256.163C68.5391 256.419 68.7181 256.623 68.9559 256.775C69.1939 256.924 69.4787 257.009 69.8104 257.031L69.7453 258.034C69.235 258.001 68.7947 257.855 68.4244 257.594C68.0541 257.334 67.7744 256.994 67.5853 256.575C67.3963 256.152 67.3183 255.688 67.3512 255.18C67.3843 254.67 67.5214 254.225 67.7624 253.845C68.0034 253.465 68.3141 253.174 68.6943 252.974C69.0745 252.774 69.4886 252.688 69.9366 252.717C70.2569 252.738 70.5664 252.817 70.865 252.953C71.161 253.086 71.4869 253.306 71.8427 253.614C72.1959 253.919 72.6242 254.338 73.1276 254.872L75.0929 256.964L75.1609 256.968L75.4236 252.92L76.3591 252.98L76.0027 258.475ZM76.7765 248.391C76.7349 249.032 76.5251 249.566 76.1472 249.994C75.7664 250.422 75.2352 250.734 74.5535 250.929C73.869 251.123 73.0533 251.19 72.1065 251.129C71.1653 251.068 70.3693 250.896 69.7185 250.615C69.0651 250.331 68.5773 249.952 68.255 249.478C67.93 249.002 67.7882 248.446 67.8294 247.811C67.8706 247.176 68.083 246.644 68.4666 246.217C68.8476 245.786 69.3803 245.473 70.0648 245.278C70.7466 245.081 71.5582 245.012 72.4994 245.073C73.4462 245.135 74.2465 245.306 74.9001 245.588C75.5508 245.869 76.0374 246.247 76.3596 246.72C76.6791 247.193 76.818 247.751 76.7765 248.391ZM75.8409 248.331C75.8821 247.696 75.608 247.182 75.0184 246.791C74.4289 246.4 73.5671 246.167 72.4332 246.094C71.6791 246.045 71.0317 246.084 70.4911 246.211C69.9506 246.336 69.5318 246.539 69.2344 246.821C68.9373 247.101 68.7751 247.451 68.7479 247.87C68.7071 248.5 68.9856 249.012 69.5834 249.406C70.1785 249.801 71.0415 250.035 72.1727 250.108C72.9268 250.157 73.5726 250.119 74.1102 249.995C74.6478 249.87 75.0638 249.668 75.3581 249.388C75.6526 249.105 75.8135 248.753 75.8409 248.331Z" fill="#7883E8"/>
<path d="M141.163 236.38L143.386 203.037L138.199 129.187L138.199 88.6811L134 1.00036" stroke="#ED5E5E" stroke-width="2" stroke-linecap="round"/>
<path d="M137.348 232.415C137.311 232.976 137.182 233.47 136.961 233.897C136.74 234.321 136.449 234.651 136.09 234.887C135.727 235.119 135.317 235.232 134.859 235.225L134.929 234.154C135.211 234.149 135.459 234.068 135.675 233.912C135.887 233.755 136.057 233.542 136.186 233.274C136.314 233.007 136.389 232.705 136.411 232.371C136.435 231.997 136.391 231.661 136.28 231.363C136.168 231.065 136.001 230.827 135.78 230.647C135.558 230.468 135.294 230.368 134.988 230.348C134.667 230.328 134.38 230.389 134.126 230.532C133.869 230.674 133.661 230.894 133.502 231.191C133.344 231.489 133.25 231.858 133.221 232.301L133.176 232.998L132.24 232.937L132.286 232.24C132.308 231.894 132.265 231.587 132.158 231.318C132.05 231.046 131.888 230.829 131.67 230.667C131.453 230.502 131.192 230.409 130.886 230.39C130.591 230.37 130.33 230.419 130.103 230.535C129.876 230.652 129.694 230.825 129.557 231.055C129.42 231.282 129.341 231.556 129.32 231.877C129.301 232.177 129.337 232.464 129.431 232.738C129.521 233.008 129.665 233.234 129.861 233.415C130.054 233.595 130.295 233.702 130.583 233.735L130.517 234.756C130.062 234.709 129.671 234.546 129.344 234.265C129.015 233.985 128.768 233.63 128.602 233.201C128.437 232.769 128.37 232.302 128.403 231.8C128.438 231.261 128.577 230.806 128.82 230.435C129.06 230.063 129.365 229.786 129.732 229.602C130.1 229.418 130.49 229.339 130.901 229.366C131.391 229.398 131.801 229.554 132.13 229.834C132.459 230.112 132.676 230.474 132.781 230.923L132.849 230.927C132.976 230.383 133.237 229.969 133.634 229.684C134.029 229.399 134.502 229.275 135.055 229.311C135.528 229.341 135.945 229.498 136.306 229.78C136.663 230.06 136.936 230.428 137.122 230.884C137.309 231.34 137.384 231.85 137.348 232.415ZM137.532 227.725L136.767 227.675L133.807 224.596C133.46 224.235 133.158 223.937 132.9 223.701C132.639 223.464 132.391 223.286 132.157 223.166C131.92 223.042 131.669 222.972 131.402 222.954C131.096 222.934 130.826 222.991 130.593 223.124C130.359 223.254 130.173 223.441 130.035 223.686C129.897 223.93 129.818 224.209 129.797 224.524C129.775 224.859 129.826 225.155 129.949 225.414C130.069 225.669 130.248 225.873 130.485 226.025C130.723 226.174 131.008 226.26 131.34 226.281L131.275 227.285C130.765 227.252 130.324 227.105 129.954 226.845C129.584 226.584 129.304 226.244 129.115 225.825C128.926 225.403 128.848 224.938 128.881 224.431C128.914 223.92 129.051 223.475 129.292 223.095C129.533 222.715 129.844 222.425 130.224 222.225C130.604 222.024 131.018 221.939 131.466 221.968C131.786 221.989 132.096 222.067 132.395 222.203C132.691 222.336 133.016 222.557 133.372 222.864C133.725 223.169 134.154 223.588 134.657 224.122L136.622 226.214L136.691 226.218L136.953 222.17L137.889 222.231L137.532 227.725ZM138.313 217.54C138.276 218.101 138.147 218.595 137.926 219.022C137.705 219.446 137.415 219.776 137.055 220.012C136.692 220.244 136.282 220.357 135.824 220.35L135.894 219.279C136.176 219.274 136.425 219.194 136.64 219.037C136.852 218.88 137.022 218.667 137.151 218.399C137.279 218.132 137.354 217.83 137.376 217.496C137.4 217.122 137.357 216.786 137.245 216.488C137.133 216.19 136.967 215.952 136.745 215.772C136.523 215.593 136.259 215.493 135.953 215.473C135.633 215.453 135.345 215.514 135.091 215.657C134.834 215.799 134.626 216.019 134.468 216.316C134.309 216.614 134.215 216.983 134.186 217.426L134.141 218.123L133.206 218.062L133.251 217.365C133.273 217.019 133.231 216.712 133.123 216.443C133.015 216.171 132.853 215.954 132.635 215.792C132.418 215.627 132.157 215.535 131.851 215.515C131.556 215.496 131.295 215.544 131.068 215.66C130.842 215.777 130.659 215.95 130.522 216.18C130.385 216.407 130.306 216.681 130.285 217.002C130.266 217.302 130.303 217.589 130.396 217.863C130.486 218.134 130.63 218.359 130.826 218.54C131.019 218.72 131.26 218.827 131.548 218.86L131.482 219.881C131.027 219.834 130.636 219.671 130.31 219.39C129.98 219.11 129.733 218.755 129.567 218.326C129.402 217.894 129.335 217.427 129.368 216.925C129.403 216.386 129.542 215.931 129.785 215.56C130.026 215.188 130.33 214.911 130.698 214.727C131.065 214.543 131.455 214.464 131.866 214.491C132.356 214.523 132.766 214.679 133.095 214.959C133.425 215.237 133.642 215.6 133.746 216.048L133.814 216.052C133.941 215.508 134.202 215.094 134.6 214.809C134.994 214.524 135.467 214.4 136.02 214.436C136.494 214.466 136.91 214.623 137.271 214.905C137.628 215.185 137.901 215.553 138.087 216.009C138.274 216.465 138.349 216.975 138.313 217.54ZM138.801 210.017C138.759 210.658 138.549 211.192 138.171 211.62C137.791 212.048 137.259 212.36 136.578 212.555C135.893 212.749 135.078 212.816 134.131 212.754C133.19 212.693 132.394 212.522 131.743 212.241C131.089 211.956 130.602 211.577 130.279 211.104C129.954 210.627 129.812 210.072 129.854 209.437C129.895 208.801 130.107 208.27 130.491 207.842C130.872 207.412 131.405 207.099 132.089 206.904C132.771 206.706 133.582 206.638 134.524 206.699C135.471 206.76 136.271 206.932 136.924 207.214C137.575 207.495 138.062 207.872 138.384 208.346C138.703 208.819 138.842 209.376 138.801 210.017ZM137.865 209.956C137.906 209.321 137.632 208.808 137.043 208.417C136.453 208.026 135.591 207.793 134.457 207.72C133.703 207.671 133.056 207.71 132.515 207.837C131.975 207.961 131.556 208.165 131.259 208.447C130.962 208.727 130.799 209.077 130.772 209.496C130.731 210.125 131.01 210.637 131.608 211.032C132.203 211.427 133.066 211.661 134.197 211.734C134.951 211.783 135.597 211.745 136.135 211.62C136.672 211.496 137.088 211.294 137.382 211.014C137.677 210.731 137.838 210.379 137.865 209.956Z" fill="#ED5E5E"/>
</svg>
